<svg xmlns="http://www.w3.org/2000/svg" viewBox="0 0 32 32" width="512" height="512" fill="none">
  <rect width="32" height="32" rx="7" fill="#111113"/>
  <path d="M16 2C10 2 6 6 4 10c-1 2-1.5 4.5-1 7 .5 2 1.5 3.5 3 4.5 1 .7 2.2 1 3.5.8C11 22 12 21 12.5 19.5c.3-1 .2-2-.2-3-.5-1-1.3-1.8-2.3-2.2-.5-.2-.5-.8 0-1C12 12 14 11 16 11s4 1 6 2.3c.5.3.5.8 0 1-1 .4-1.8 1.2-2.3 2.2-.4 1-.5 2-.2 3 .5 1.5 1.5 2.5 3 2.8 1.3.2 2.5-.1 3.5-.8 1.5-1 2.5-2.5 3-4.5.5-2.5 0-5-1-7C26 6 22 2 16 2z" fill="#C8A44E"/>
  <circle cx="11.5" cy="15" r="1.2" fill="#09090B"/>
  <circle cx="20.5" cy="15" r="1.2" fill="#09090B"/>
</svg>
